<svg id="Layer_1" data-name="Layer 1" xmlns="http://www.w3.org/2000/svg" viewBox="0 0 822.05 1190.55"><path d="M419.71,1180.47a2,2,0,0,1-1-.28c-4-2.4-8.07-4.81-12.13-7.19q-22.9-13.43-45.07-28c-16.93-11.16-33.5-22.82-49.61-35.13q-20.06-15.33-39-32c-11.67-10.29-23-20.92-33.81-32.09-22.6-23.32-43.08-48.32-59.69-76.32-12-20.19-21.54-41.42-27-64.34a146,146,0,0,1-4-25.64,22.34,22.34,0,0,1-.06-4.41,14.25,14.25,0,0,1,.53,1.88,125.73,125.73,0,0,0,15.61,45,162.6,162.6,0,0,0,22.48,30.35A210.42,210.42,0,0,0,221,981.54a255.41,255.41,0,0,0,31.68,18.73,317.46,317.46,0,0,0,61.15,22.87,342,342,0,0,0,35.51,7.49q11.43,1.75,23,2.89c8.27.82,16.56,1.53,24.86,1.81,9.59.32,19.2.13,28.79.06q7.19,0,14.34-.53c8.07-.55,16.17-1,24.19-2.09,10.28-1.35,20.53-3.07,30.72-5,7.08-1.32,14.05-3.25,21.06-4.91,9.11-2.14,18.25-4.16,27.31-6.45a542.47,542.47,0,0,0,87.86-30,372.62,372.62,0,0,0,63.52-35.54A283,283,0,0,0,723,928.31a216.64,216.64,0,0,0,32.8-37.53,173.12,173.12,0,0,0,22.24-45.14A158.32,158.32,0,0,0,784.93,814v-.07l4.29-.88c.76,1.31,1.51,2.62,2.23,4a208.87,208.87,0,0,1,14.91,33.91,192.27,192.27,0,0,1,8.83,40.94c.12,1.19,0,2.41.11,3.6,0,.43.3,6.79.48,7.74a3,3,0,0,1,0,.31v14.09a2.07,2.07,0,0,1,0,.35c-.18.94-.44,6.4-.46,6.75-.09,1.37,0,2.75-.13,4.12a192,192,0,0,1-10.58,45.78,221.55,221.55,0,0,1-32,57.92,279.84,279.84,0,0,1-34.85,37.81A330.09,330.09,0,0,1,704.33,1097a407.12,407.12,0,0,1-63.47,36.13,486.54,486.54,0,0,1-68,25.22,499.8,499.8,0,0,1-64.49,14.47c-13,2-26,3.71-39,5.06-10.56,1.1-21.19,1.47-31.79,2.19-.43,0-2.86,0-3.57.14l-.27,0C428.31,1180.2,425,1180.46,419.71,1180.47Z"/><path d="M6.24,909.72c0-.66,0-1.39.07-2.06a199.27,199.27,0,0,1,3.14-30.13A192,192,0,0,1,24,831.24a235.28,235.28,0,0,1,35-54.42,284.31,284.31,0,0,1,20.51-21.71,328.64,328.64,0,0,1,36.38-29.88A396.34,396.34,0,0,1,160,698.16a463.4,463.4,0,0,1,69.58-29.65c.81-.28,1.63-.52,2.46-.76a2.34,2.34,0,0,1,.63.06v56.13c0,.77,0,1.55,0,2.32a2.78,2.78,0,0,1-1.68,2.62,226.48,226.48,0,0,0-28.37,19.17,184.48,184.48,0,0,0-39.79,42.49A130.94,130.94,0,0,0,143.43,836a136.7,136.7,0,0,0-2.5,19.36c-.43,6.2.36,12.31.53,18.46a147.45,147.45,0,0,0,3.19,26.26,203.44,203.44,0,0,0,14.77,43.83,294,294,0,0,0,23.52,41.4,410.51,410.51,0,0,0,30.14,39.15q14,16.18,29.33,31.09,20,19.54,41.61,37.24c20.53,16.85,41.89,32.57,63.94,47.38q30.06,20.17,61.51,38.15c1.18.68,2.32,1.45,3.48,2.17-8.76,0-15.13-.34-23.9-.34-.47-.15-3.34-.07-3.83-.1-6.07-.36-12.16-.57-18.22-1.07-9.22-.75-18.45-1.52-27.64-2.58a549,549,0,0,1-66.85-12q-24.8-6-48.89-14.41a462.82,462.82,0,0,1-46.91-19.25c-9.84-4.71-19.53-9.7-29-15.12a377.79,377.79,0,0,1-33.79-21.75,311.5,311.5,0,0,1-34.65-28.74q-8.88-8.61-17.11-17.86a231.36,231.36,0,0,1-38.31-58.34,195,195,0,0,1-11.17-31.24A200.38,200.38,0,0,1,6.31,913c0-.58,0-1.1-.07-1.68Z"/><path d="M523,9.21a40.78,40.78,0,0,1,6.11.89,9.07,9.07,0,0,1,2.81,1c-2.38.63-4.73,1.39-7.14,1.86-5.89,1.15-11.28,3.62-16.55,6.32a89.37,89.37,0,0,0-23.7,17.55C470.6,51.26,462,68.42,459.31,88.4a90.19,90.19,0,0,0,8.6,52.8A87.79,87.79,0,0,0,486,166.07a96.33,96.33,0,0,0,11.92,9.79,166.87,166.87,0,0,1,22.43,18.82,135.87,135.87,0,0,1,35.49,58.63,134.33,134.33,0,0,1-1.55,79.74,134.34,134.34,0,0,1-28,47.59,146,146,0,0,1-95.61,47.22c-5.47.42-11,.85-16.45.73-11.85-.25-23.62-1.49-35.07-4.83a59.15,59.15,0,0,1-6.38-2.78c1.55-1.06,2.52-1.85,3.61-2.44a145.94,145.94,0,0,0,26.52-18.15,136.06,136.06,0,0,0,30.46-37.62,129.14,129.14,0,0,0,12.32-32.13,107.06,107.06,0,0,0,3.05-20.84c.16-4.8.52-9.63.26-14.41a128.66,128.66,0,0,0-6.23-33.81,131.17,131.17,0,0,0-25.5-45,73.37,73.37,0,0,1-10.88-17.1c-2.33-5-4.92-9.84-7-14.91a120.31,120.31,0,0,1-8.12-31.81,127.57,127.57,0,0,1-.79-22.86,128.93,128.93,0,0,1,10.42-43.83,127.87,127.87,0,0,1,89.54-73.9,147.78,147.78,0,0,1,21-2.85c1-.08,1.91-.17,2.7-.2A63.19,63.19,0,0,1,523,9.21Z"/><path d="M324.26,495.81c.2-8,.37-16,.59-23.95.11-3.81.13-3.86,3.62-5.62a238.34,238.34,0,0,1,27.64-11.76,190.25,190.25,0,0,1,27.29-7.26,139.73,139.73,0,0,1,21.12-2.8c3.5-.13,7-.74,10.49-.85a68.39,68.39,0,0,1,7.69.46c2.9.23,5.81.41,8.7.79,4.41.57,8.84,1.11,13.2,2,6.54,1.33,13.06,2.8,19.51,4.49,4.53,1.2,9,2.79,13.41,4.34A206.72,206.72,0,0,1,503.32,467c1.91,1,2.46,2.21,2.49,4.24.11,9.27.36,18.54.57,27.82l.42,19.57c.21,9.44.31,18.89.65,28.32.28,7.89.88,15.76,1.26,23.64.19,4.12.2,8.24.32,12.36.13,4.29.24,8.58.43,12.87.32,7,.64,14.05,1,21.08.41,7.27.93,14.54,1.37,21.82.4,6.68.75,13.36,1.13,20,.34,6.16.61,12.34,1.07,18.49.32,4.36.93,8.7,1.37,13,.26,2.64.44,5.29.63,7.94.52,7.1.93,14.2,1.56,21.29.5,5.54,1.28,11.06,1.88,16.59.31,2.81.46,5.64.75,8.45.32,3.23.71,6.47,1.06,9.7.33,3,.64,6,1,8.95.28,2.55.58,5.09.89,7.64q.9,7.13,1.82,14.26c.29,2.21.62,4.42,1,6.62.58,3.9,1.14,7.79,1.76,11.68,1.09,6.84,2.14,13.68,3.35,20.5,1.5,8.51,3.06,17,4.75,25.49,1.56,7.86,3.34,15.67,5,23.52,1.21,5.82,2.28,11.66,3.52,17.48,1.43,6.75,3.1,13.45,4.44,20.22a72.15,72.15,0,0,1,1.65,12.19A44.9,44.9,0,0,1,548,937.67c-3.66,11.44-10.68,20.63-19.15,28.87A107.28,107.28,0,0,1,503.3,985a122.22,122.22,0,0,1-23.23,9.41c-4.94,1.38-9.84,3-14.84,4-5.35,1.16-10.78,2-16.2,2.7-6.45.88-12.92,1.52-19.39,2.24-.85.09-1.72,0-2.57.11a163.35,163.35,0,0,1-28.75-.4c-6.31-.65-12.64-1.12-18.9-2.09s-12.25-2.4-18.36-3.69A136.16,136.16,0,0,1,333.35,988a109.62,109.62,0,0,1-32.56-22.21c-7.61-7.58-14-16-17.65-26.28a50.1,50.1,0,0,1-1.41-28.36c1.8-7.92,3.3-15.91,5-23.85,1-4.77,2.16-9.5,3.18-14.26,1.5-7,3-14.07,4.39-21.11,1.34-6.64,2.64-13.28,3.84-19.94,1.07-5.9,2-11.83,2.94-17.74.78-4.82,1.58-9.63,2.3-14.45.66-4.49,1.23-9,1.84-13.5.58-4.25,1.18-8.49,1.73-12.74.63-4.85,1.25-9.69,1.81-14.55.84-7.32,1.67-14.65,2.43-22,.63-6.14,1.18-12.29,1.7-18.44q1.11-12.95,2.13-25.9,1-13.32,2-26.67t1.81-26.69c.34-5.4.53-10.8.82-16.2.38-7.19.82-14.38,1.19-21.58.21-4.2.32-8.4.47-12.61q.51-13.89,1-27.78c.3-8.32.62-16.64.89-25,.22-6.77.37-13.55.56-20.33s.39-13.39.58-20.08Z"/><path d="M583.35,724.85V669.42a12.74,12.74,0,0,1,.06-2c.24-1.48,1-1.88,2.36-1.41,19.29,6.5,38.36,13.57,56.81,22.21a426.88,426.88,0,0,1,48.56,26.55A352.17,352.17,0,0,1,734.19,747c7.23,6.35,14.09,13.08,20.67,20.11a252.65,252.65,0,0,1,23.08,28.32c1.37,2,2.69,4,3.9,6.06a4.69,4.69,0,0,1,.69,2.65,170.33,170.33,0,0,1-12.37,50.28,188.73,188.73,0,0,1-33,52C722,923.5,704.51,938,685.52,950.67a379.67,379.67,0,0,1-54.79,30.11A503.88,503.88,0,0,1,570,1003.56c-4.68,1.43-9.38,2.79-14.07,4.17a3.15,3.15,0,0,1-1.81.06c1.46-.68,2.92-1.39,4.39-2a253.89,253.89,0,0,0,59.74-36.68,180.13,180.13,0,0,0,32.53-35c11.08-15.81,19-33,22.45-52.1A148.93,148.93,0,0,0,675,865.4c1-14.93-1.5-29.41-6.24-43.52a123.85,123.85,0,0,0-15.28-30.83c-4.52-6.58-9.07-13.16-14-19.38a178.72,178.72,0,0,0-29.74-28.76,244.65,244.65,0,0,0-25.05-17.2C584.22,725.44,583.8,725.15,583.35,724.85Z"/><path d="M258.18,301.56a103.91,103.91,0,0,1,8.76-42.14,96.83,96.83,0,0,1,17.5-26.84c10.87-11.73,23.79-20.25,39.26-24.46,23.46-6.39,45.66-3.16,66.14,10,20.25,13,32.81,31.82,39.5,54.71a101.3,101.3,0,0,1,3.83,25.88,102.73,102.73,0,0,1-9.1,45.74,95.85,95.85,0,0,1-16.94,25.69,87.16,87.16,0,0,1-25.76,19.4A78,78,0,0,1,353,397.49c-23.63,2-44.26-5.19-61.94-20.71-15.73-13.8-25.42-31.33-30.21-51.61A102.6,102.6,0,0,1,258.18,301.56Z"/><path d="M378.62,88.93c-1.66.57-2.9,1.09-4.2,1.44-13.95,3.72-24.44,11.95-31.1,24.71a45.82,45.82,0,0,0-3.9,33.5C342.66,161.23,350,171,360.91,178a45.74,45.74,0,0,0,12.53,5.3,8.43,8.43,0,0,1,2.93,1.35c-.42.12-.82.28-1.24.37-10.08,2.27-20.15,2.42-29.91-1.21-19.42-7.23-30.91-21.22-33.78-41.74-2.1-15,2.18-28.46,12.09-39.88a51,51,0,0,1,46.39-16.76A24.76,24.76,0,0,1,378.62,88.93Z"/></svg>